<?xml version="1.0" encoding="UTF-8"?>
<svg version="1.1" xmlns="http://www.w3.org/2000/svg" width="836" height="298">
<path d="M0 0 C1.98254143 -0.0165428 3.96502362 -0.0438107 5.94726562 -0.08203125 C8.80890781 -0.13691598 11.6691517 -0.15869282 14.53125 -0.17333984 C15.41270691 -0.19600922 16.29416382 -0.21867859 17.20233154 -0.24203491 C21.51888011 -0.22728327 24.3519857 -0.01299741 27.77832031 2.7578125 C31.14580953 6.31208691 31.76590197 8.6346029 31.71142578 13.58203125 C30.69287556 19.4921246 27.17635981 24.55361527 24.171875 29.66259766 C22.83245298 31.96323329 21.51250799 34.27245667 20.19921875 36.58837891 C19.6074585 37.59940674 19.01569824 38.61043457 18.40600586 39.65209961 C17.01151301 42.22815589 17.01151301 42.22815589 17.54907227 44.71020508 C17.77522217 45.25136963 18.00137207 45.79253418 18.234375 46.35009766 C19.23235107 46.36411621 19.23235107 46.36411621 20.25048828 46.37841797 C23.28751519 46.43235785 26.32304079 46.51595827 29.359375 46.60009766 C30.40609375 46.61427734 31.4528125 46.62845703 32.53125 46.64306641 C38.68927296 46.83794055 42.5751116 47.1804777 47.234375 51.35009766 C49.45912734 54.57957686 50.18414346 56.69708761 50.484375 60.60009766 C48.54393564 66.42141573 44.45197926 70.00767333 40.234375 74.35009766 C38.85259899 75.88569401 37.4775879 77.42740435 36.109375 78.97509766 C29.60035597 86.20734102 22.90147967 93.26404875 16.234375 100.35009766 C13.64984185 103.09897271 11.06651161 105.84897132 8.484375 108.60009766 C7.86304687 109.26195068 7.24171875 109.92380371 6.6015625 110.60571289 C1.89125668 115.63099546 -2.7681731 120.70025577 -7.3984375 125.79931641 C-9.7945014 128.38121365 -12.262426 130.87235492 -14.765625 133.35009766 C-15.343125 133.94822266 -15.920625 134.54634766 -16.515625 135.16259766 C-20.17494503 137.09390545 -23.73489986 137.11719068 -27.765625 136.35009766 C-30.83444316 134.63105014 -33.16919584 132.54295598 -34.765625 129.35009766 C-35.15404683 122.33076024 -34.05120749 116.36600752 -32.265625 109.60009766 C-31.79163735 107.77332364 -31.32270847 105.94522796 -30.859375 104.11572266 C-30.64990234 103.3194043 -30.44042969 102.52308594 -30.22460938 101.70263672 C-29.73263209 99.18099146 -29.61752638 96.9130879 -29.765625 94.35009766 C-31.67486379 92.44085886 -35.12089484 93.19617042 -37.65234375 93.17431641 C-39.0800926 93.15110174 -40.507827 93.12698375 -41.93554688 93.10205078 C-44.18914212 93.0670487 -46.442212 93.03766299 -48.69604492 93.02416992 C-50.86963122 93.00860497 -53.04167074 92.96832778 -55.21484375 92.92431641 C-56.51768311 92.90973389 -57.82052246 92.89515137 -59.1628418 92.88012695 C-64.14594196 92.14703009 -67.2794595 90.04125151 -70.578125 86.28759766 C-73.08158094 82.20301164 -73.66044503 78.00316182 -72.765625 73.35009766 C-70.88808793 69.38272251 -68.32968499 65.89571186 -65.765625 62.35009766 C-65.29898438 61.6971875 -64.83234375 61.04427734 -64.3515625 60.37158203 C-61.63750418 56.57537995 -58.90351757 52.79420036 -56.15625 49.02197266 C-53.01068376 44.698158 -49.90887628 40.3452616 -46.828125 35.97509766 C-46.34617676 35.29390869 -45.86422852 34.61271973 -45.36767578 33.91088867 C-42.59322433 29.98003564 -39.85688866 26.02596505 -37.1484375 22.04931641 C-36.53347412 21.15325684 -35.91851074 20.25719727 -35.28491211 19.33398438 C-34.0978897 17.60289025 -32.91850478 15.86652418 -31.74829102 14.12402344 C-22.62942449 0.86924822 -15.40738236 0.09425813 0 0 Z " fill="#84A4DA" transform="translate(102.765625,80.64990234375)"/>
<path d="M0 0 C26 0 26 0 32.24609375 5.54296875 C33.60552979 7.46798706 33.60552979 7.46798706 34.43457031 9.19873047 C34.92552185 10.1739566 34.92552185 10.1739566 35.4263916 11.16888428 C35.76005737 11.83502747 36.09372314 12.50117065 36.4375 13.1875 C37.20849022 14.54102621 37.98964514 15.88880726 38.78027344 17.23095703 C40.41509249 20.02628584 42.00001464 22.8423094 43.55615234 25.68212891 C46.71588218 31.3672653 50.3150452 36.74824928 53.92895508 42.15112305 C57.66135941 47.73955466 61.32386255 53.37439572 65 59 C65.33 39.53 65.66 20.06 66 0 C74.25 0 82.5 0 91 0 C91 33.66 91 67.32 91 102 C66 102 66 102 61.15625 97.58984375 C60.06160249 95.41412736 59.01440189 93.21426822 58 91 C56.24152316 88.17257391 54.34529752 85.44139339 52.46875 82.69140625 C51.4793278 81.18930916 50.49369494 79.68470973 49.51171875 78.17773438 C49.01591309 77.41807373 48.52010742 76.65841309 48.00927734 75.87573242 C47.26218506 74.73068237 47.26218506 74.73068237 46.5 73.5625 C45.00033864 71.26934264 43.49988208 68.97670731 41.99926758 66.68417358 C41.03004415 65.2034402 40.06112523 63.72250745 39.0925293 62.24136353 C35.09771964 56.13661063 31.05904182 50.06225351 27 44 C26.98969254 44.71187973 26.97938507 45.42375946 26.96876526 46.1572113 C26.87095102 52.85282826 26.76845996 59.54835518 26.66066074 66.24381924 C26.6054012 69.6863574 26.55197653 73.128904 26.50268555 76.5715332 C26.44599199 80.52564526 26.38142505 84.47960944 26.31640625 88.43359375 C26.29133751 90.29605995 26.29133751 90.29605995 26.26576233 92.19615173 C26.24581711 93.33725906 26.22587189 94.47836639 26.20532227 95.65405273 C26.18977798 96.664431 26.1742337 97.67480927 26.15821838 98.71580505 C26 101 26 101 25 102 C16.75 102 8.5 102 0 102 C0 68.34 0 34.68 0 0 Z " fill="#84A4DA" transform="translate(633,92)"/>
<path d="M0 0 C8.58 0 17.16 0 26 0 C26.495 20.295 26.495 20.295 27 41 C30.031875 36.854375 30.031875 36.854375 33.125 32.625 C39.78474469 23.55477503 46.63866312 14.64790081 53.59643555 5.80493164 C55.07126283 3.99801512 55.07126283 3.99801512 56.25048828 1.7956543 C58 0 58 0 61.09448242 -0.45410156 C62.33560791 -0.4331543 63.5767334 -0.41220703 64.85546875 -0.390625 C65.51710526 -0.38496521 66.17874176 -0.37930542 66.86042786 -0.37347412 C68.97019332 -0.35111247 71.07824952 -0.30092371 73.1875 -0.25 C74.61911606 -0.2299344 76.0507588 -0.21168372 77.48242188 -0.1953125 C80.98883515 -0.15125069 84.49425072 -0.08222777 88 0 C86.41763638 4.22360877 84.52981013 7.01441103 81.5625 10.4375 C80.651885 11.50240305 79.7430975 12.56887095 78.8359375 13.63671875 C78.36639648 14.1889209 77.89685547 14.74112305 77.41308594 15.31005859 C74.63519612 18.6321998 71.99711538 22.06437759 69.34057617 25.48364258 C66.75634128 28.79750088 64.13108387 32.06912372 61.44921875 35.3046875 C60.55746948 36.38411621 60.55746948 36.38411621 59.64770508 37.48535156 C58.48786936 38.88526896 57.32254121 40.2806585 56.15112305 41.67089844 C55.62429932 42.30801758 55.09747559 42.94513672 54.5546875 43.6015625 C54.08530762 44.16182129 53.61592773 44.72208008 53.13232422 45.29931641 C51.81563834 47.27690025 51.20850758 48.62531436 51 51 C51.98538091 52.90247881 51.98538091 52.90247881 53.61328125 54.65234375 C54.19682373 55.33965576 54.78036621 56.02696777 55.3815918 56.73510742 C56.0187915 57.46189697 56.65599121 58.18868652 57.3125 58.9375 C58.61884904 60.47254588 59.923526 62.00901624 61.2265625 63.546875 C61.87270508 64.30419922 62.51884766 65.06152344 63.18457031 65.84179688 C66.44740838 69.72069528 69.48396697 73.76185985 72.55078125 77.796875 C75.72114235 81.96504774 78.98093163 86.06342569 82.24682617 90.15698242 C85.02377814 93.66381089 87.56561661 97.2465205 90 101 C86.52447482 104.47552518 75.40458911 102.83533373 70.35351562 102.85083008 C68.98686853 102.82515945 67.62030743 102.79429646 66.25390625 102.7578125 C65.00939697 102.73090332 63.7648877 102.70399414 62.48266602 102.67626953 C57.95495689 101.7970719 56.30564426 100.36606228 53 97.1875 C52.00550875 95.49042283 51.01612343 93.78775021 50.12597656 92.03369141 C47.81589807 87.86132501 44.74635182 84.1713737 41.875 80.375 C40.74530508 78.82183106 39.61766778 77.26716323 38.4921875 75.7109375 C34.78656547 70.71207825 30.88720118 65.85900148 27 61 C26.67 74.53 26.34 88.06 26 102 C21.895625 102.020625 17.79125 102.04125 13.5625 102.0625 C11.61839233 102.07615601 11.61839233 102.07615601 9.63500977 102.09008789 C8.11605103 102.09383423 8.11605103 102.09383423 6.56640625 102.09765625 C5.00321655 102.10551147 5.00321655 102.10551147 3.40844727 102.11352539 C1 102 1 102 0 101 C-0.09534958 97.86440114 -0.12550879 94.75086387 -0.11352539 91.61499023 C-0.11367142 90.62973358 -0.11381744 89.64447693 -0.1139679 88.62936401 C-0.11326832 85.35575193 -0.10547385 82.08219596 -0.09765625 78.80859375 C-0.09579223 76.54557832 -0.09436825 74.28256249 -0.09336853 72.01954651 C-0.0895421 66.05021052 -0.07971075 60.08089868 -0.06866455 54.11157227 C-0.05845312 48.02555671 -0.05387149 41.93953727 -0.04882812 35.85351562 C-0.03808859 23.9023314 -0.02049078 11.95117149 0 0 Z " fill="#83A4DA" transform="translate(289,92)"/>
<path d="M0 0 C5.63776193 5.09281131 9.72402905 10.38404838 11 18 C11 19.98 11 21.96 11 24 C1.76 24 -7.48 24 -17 24 C-17.99 21.69 -18.98 19.38 -20 17 C-23.23914229 14.84057181 -24.24859733 14.72767022 -28 14.75 C-29.299375 14.74226563 -29.299375 14.74226563 -30.625 14.734375 C-33.265795 14.84585448 -33.265795 14.84585448 -36 17 C-37.07255595 20.44750127 -37.35122018 22.23805058 -35.82421875 25.55078125 C-33.68293072 28.42570115 -32.26884841 29.12867275 -28.9375 30.375 C-27.34808594 30.99181641 -27.34808594 30.99181641 -25.7265625 31.62109375 C-23.75881838 32.34920033 -21.79106581 33.07728409 -19.82324219 33.80517578 C4.52337488 42.8563279 4.52337488 42.8563279 11 55 C13.61512743 62.84538229 12.88393394 72.29872108 9.3828125 79.75390625 C3.95688651 88.56720412 -4.43717614 93.68993231 -14.3125 96.3125 C-27.45951712 98.71546974 -41.49089195 97.16301018 -52.77734375 89.73046875 C-58.67455343 85.13914382 -63.62597656 79.53750003 -65 72 C-65 69.36 -65 66.72 -65 64 C-56.09 64 -47.18 64 -38 64 C-37.01 66.97 -36.02 69.94 -35 73 C-27.40388719 75.0842309 -27.40388719 75.0842309 -19.875 73.75 C-16.93252555 72.30796032 -16.93252555 72.30796032 -16 70 C-15.5099614 66.32471054 -15.55368634 64.61355758 -17.76171875 61.578125 C-21.97383247 57.60689526 -27.80490398 56.31694383 -33.1875 54.5625 C-44.89174421 50.72128514 -55.8522041 46.58624 -63 36 C-66.03154677 29.27787455 -66.19773786 20.51873829 -64.3125 13.40625 C-60.27787858 3.5886712 -53.66153988 -1.8631163 -44 -6 C-30.03581588 -10.53890277 -11.88019985 -9.02805357 0 0 Z " fill="#84A4D9" transform="translate(254,98)"/>
<path d="M0 0 C20.79 0 41.58 0 63 0 C63 6.6 63 13.2 63 20 C62 21 62 21 58.58178711 21.11352539 C57.06363012 21.11336628 55.54546771 21.10767226 54.02734375 21.09765625 C53.22970108 21.0962413 52.43205841 21.09482635 51.61024475 21.09336853 C49.05262565 21.08775316 46.49509282 21.07519812 43.9375 21.0625 C42.20768355 21.05748698 40.47786574 21.05292373 38.74804688 21.04882812 C34.49863761 21.03862791 30.24941584 21.01905568 26 21 C26 27.27 26 33.54 26 40 C36.89 40 47.78 40 59 40 C59 46.6 59 53.2 59 60 C48.11 60 37.22 60 26 60 C26 66.93 26 73.86 26 81 C38.21 81 50.42 81 63 81 C63 87.93 63 94.86 63 102 C54.9334741 102.02255449 46.86697254 102.04091709 38.80042362 102.05181217 C35.05516963 102.05704014 31.30993824 102.06413622 27.56469727 102.07543945 C23.95318313 102.08627141 20.34169079 102.09227749 16.73016167 102.09487724 C15.34939671 102.09673094 13.968633 102.10035049 12.58787727 102.10573006 C10.66024048 102.11294447 8.73258193 102.11340809 6.80493164 102.11352539 C5.70572891 102.115746 4.60652618 102.11796661 3.47401428 102.12025452 C1 102 1 102 0 101 C-0.09534958 97.86440114 -0.12550879 94.75086387 -0.11352539 91.61499023 C-0.11367142 90.62973358 -0.11381744 89.64447693 -0.1139679 88.62936401 C-0.11326832 85.35575193 -0.10547385 82.08219596 -0.09765625 78.80859375 C-0.09579223 76.54557832 -0.09436825 74.28256249 -0.09336853 72.01954651 C-0.0895421 66.05021052 -0.07971075 60.08089868 -0.06866455 54.11157227 C-0.05665917 46.95636749 -0.05204879 39.80115465 -0.04621124 32.64594269 C-0.03649906 21.76394497 -0.01734337 10.8820003 0 0 Z " fill="#84A3D8" transform="translate(750,92)"/>
<path d="M0 0 C9.57 0 19.14 0 29 0 C37.91 19.305 37.91 19.305 47 39 C51.64228566 29.71542869 56.22409907 20.52758032 60.4375 11.0625 C61.28834825 9.15665063 62.14110259 7.25165065 62.99609375 5.34765625 C63.35888428 4.53304932 63.7216748 3.71844238 64.09545898 2.87915039 C65 1 65 1 66 0 C68.14558827 -0.08775605 70.29404421 -0.10695219 72.44140625 -0.09765625 C73.74658203 -0.09443359 75.05175781 -0.09121094 76.39648438 -0.08789062 C77.7851569 -0.07953401 79.17382877 -0.07106905 80.5625 -0.0625 C81.95507656 -0.05748666 83.34765481 -0.05292347 84.74023438 -0.04882812 C88.1601987 -0.03699434 91.58007844 -0.0205088 95 0 C93.80392216 3.79811391 92.46368377 7.2903317 90.6015625 10.80859375 C90.1281543 11.70900391 89.65474609 12.60941406 89.16699219 13.53710938 C88.65813477 14.49423828 88.14927734 15.45136719 87.625 16.4375 C86.53891313 18.49861921 85.45298007 20.55981949 84.3671875 22.62109375 C83.80999023 23.67538574 83.25279297 24.72967773 82.67871094 25.81591797 C79.54800266 31.75406477 76.45873284 37.71385973 73.36181641 43.66967773 C72.90726074 44.54180908 72.45270508 45.41394043 71.984375 46.3125 C71.52353516 47.21540771 71.06269531 48.11831543 70.58789062 49.04858398 C69.43107716 51.19875587 68.1878796 53.30310638 66.89648438 55.37524414 C60.7671335 65.41007857 59.84815834 73.82643318 60 85.4375 C59.99188228 87.05536062 59.98018152 88.67320735 59.96484375 90.29101562 C59.93543783 94.1950854 59.95386472 98.09612247 60 102 C55.85418113 102.02886751 51.70838784 102.04675327 47.5625 102.0625 C46.37849609 102.07087891 45.19449219 102.07925781 43.97460938 102.08789062 C42.84990234 102.09111328 41.72519531 102.09433594 40.56640625 102.09765625 C39.00321655 102.10551147 39.00321655 102.10551147 37.40844727 102.11352539 C35 102 35 102 34 101 C33.96361233 98.71119673 33.98757773 96.42141049 34.03515625 94.1328125 C34.199301 77.37755116 34.0001202 64.23930472 24.28271484 49.95605469 C22.30742785 46.9438736 20.79560332 43.74728145 19.25 40.5 C16.72183052 35.34964939 14.0953157 30.25411445 11.42578125 25.17578125 C10.78414775 23.95183966 10.14254642 22.7278812 9.50097656 21.50390625 C8.53810396 19.66753344 7.57309495 17.83246052 6.60095215 16.00097656 C5.68803887 14.28093672 4.78333473 12.55654766 3.87890625 10.83203125 C3.08335327 9.32733276 3.08335327 9.32733276 2.27172852 7.79223633 C1 5 1 5 0 0 Z " fill="#84A4D9" transform="translate(391,92)"/>
<path d="M0 0 C8.58 0 17.16 0 26 0 C26 26.73 26 53.46 26 81 C34.25 81 42.5 81 51 81 C53.31 81.33 55.62 81.66 58 82 C58.02888514 85.14581423 58.04675923 88.29159469 58.0625 91.4375 C58.07087891 92.33533203 58.07925781 93.23316406 58.08789062 94.15820312 C58.09111328 95.01220703 58.09433594 95.86621094 58.09765625 96.74609375 C58.10289307 97.53685303 58.10812988 98.3276123 58.11352539 99.14233398 C58 101 58 101 57 102 C55.22008076 102.09370624 53.43643261 102.11744271 51.65405273 102.11352539 C49.91835022 102.11334412 49.91835022 102.11334412 48.14758301 102.11315918 C46.92196655 102.10804321 45.6963501 102.10292725 44.43359375 102.09765625 C42.754328 102.09614563 42.754328 102.09614563 41.0411377 102.09460449 C36.83991478 102.0893535 32.63870641 102.07539239 28.4375 102.0625 C19.053125 102.041875 9.66875 102.02125 0 102 C0 68.34 0 34.68 0 0 Z " fill="#83A4D9" transform="translate(504,92)"/>
<path d="M0 0 C8.58 0 17.16 0 26 0 C26 33.66 26 67.32 26 102 C17.75 102 9.5 102 1 102 C-0.95365306 100.04634694 -0.12022124 97.06600248 -0.12442017 94.46598816 C-0.12082489 93.52515884 -0.11722961 92.58432953 -0.11352539 91.61499023 C-0.11367142 90.62973358 -0.11381744 89.64447693 -0.1139679 88.62936401 C-0.11326832 85.35575193 -0.10547385 82.08219596 -0.09765625 78.80859375 C-0.09579223 76.54557832 -0.09436825 74.28256249 -0.09336853 72.01954651 C-0.0895421 66.05021052 -0.07971075 60.08089868 -0.06866455 54.11157227 C-0.05845312 48.02555671 -0.05387149 41.93953727 -0.04882812 35.85351562 C-0.03808859 23.9023314 -0.02049078 11.95117149 0 0 Z " fill="#83A4DB" transform="translate(581,92)"/>
<path d="M0 0 C8.58 0 17.16 0 26 0 C26 33.66 26 67.32 26 102 C17.75 102 9.5 102 1 102 C-0.95365306 100.04634694 -0.12022124 97.06600248 -0.12442017 94.46598816 C-0.12082489 93.52515884 -0.11722961 92.58432953 -0.11352539 91.61499023 C-0.11367142 90.62973358 -0.11381744 89.64447693 -0.1139679 88.62936401 C-0.11326832 85.35575193 -0.10547385 82.08219596 -0.09765625 78.80859375 C-0.09579223 76.54557832 -0.09436825 74.28256249 -0.09336853 72.01954651 C-0.0895421 66.05021052 -0.07971075 60.08089868 -0.06866455 54.11157227 C-0.05845312 48.02555671 -0.05387149 41.93953727 -0.04882812 35.85351562 C-0.03808859 23.9023314 -0.02049078 11.95117149 0 0 Z M3 1 C1.28649009 4.42701981 1.87141017 8.36099803 1.88647461 12.13134766 C1.88632858 13.07773605 1.88618256 14.02412445 1.8860321 14.99919128 C1.88673058 18.13750475 1.89451998 21.27575937 1.90234375 24.4140625 C1.90420816 26.58596769 1.90563195 28.75787329 1.90663147 30.92977905 C1.91045484 36.65414587 1.92028361 42.37848742 1.93133545 48.10284424 C1.94155343 53.94095518 1.94612992 59.7790702 1.95117188 65.6171875 C1.96190602 77.07813611 1.9789803 88.53906596 2 100 C5.10364229 100.19696449 8.20792192 100.38093262 11.3125 100.5625 C12.63411133 100.64661133 12.63411133 100.64661133 13.98242188 100.73242188 C14.82998047 100.78076172 15.67753906 100.82910156 16.55078125 100.87890625 C17.33106689 100.9260376 18.11135254 100.97316895 18.9152832 101.02172852 C21.19737708 101.10438721 21.19737708 101.10438721 24 100 C24.02312121 87.2396613 24.04091395 74.47932755 24.05181217 61.71897221 C24.05704149 55.79449285 24.06414001 49.87002778 24.07543945 43.94555664 C24.08626661 38.23327429 24.09227647 32.52100572 24.09487724 26.80871391 C24.0967318 24.62411723 24.100353 22.43952135 24.10573006 20.2549305 C24.11293821 17.20647651 24.11399104 14.15808021 24.11352539 11.10961914 C24.11712067 10.19684204 24.12071594 9.28406494 24.12442017 8.34362793 C24.52081658 4.35432545 24.52081658 4.35432545 23 1 C21.5112814 0.91330568 20.018555 0.89296506 18.52734375 0.90234375 C17.17866211 0.90717773 17.17866211 0.90717773 15.80273438 0.91210938 C14.85720703 0.92048828 13.91167969 0.92886719 12.9375 0.9375 C11.98810547 0.94201172 11.03871094 0.94652344 10.06054688 0.95117188 C7.70696935 0.9629989 5.35351523 0.97947975 3 1 Z " fill="#869DCA" transform="translate(581,92)"/>
<path d="M0 0 C0.99 0.33 1.98 0.66 3 1 C2.67 33.67 2.34 66.34 2 100 C9.59 100 17.18 100 25 100 C25 88.12 25 76.24 25 64 C25.33 64 25.66 64 26 64 C26 76.54 26 89.08 26 102 C21.895625 102.020625 17.79125 102.04125 13.5625 102.0625 C11.61839233 102.07615601 11.61839233 102.07615601 9.63500977 102.09008789 C8.11605103 102.09383423 8.11605103 102.09383423 6.56640625 102.09765625 C5.00321655 102.10551147 5.00321655 102.10551147 3.40844727 102.11352539 C1 102 1 102 0 101 C-0.09534958 97.86440114 -0.12550879 94.75086387 -0.11352539 91.61499023 C-0.11367142 90.62973358 -0.11381744 89.64447693 -0.1139679 88.62936401 C-0.11326832 85.35575193 -0.10547385 82.08219596 -0.09765625 78.80859375 C-0.09579223 76.54557832 -0.09436825 74.28256249 -0.09336853 72.01954651 C-0.0895421 66.05021052 -0.07971075 60.08089868 -0.06866455 54.11157227 C-0.05845312 48.02555671 -0.05387149 41.93953727 -0.04882812 35.85351562 C-0.03808859 23.90233311 -0.02101068 11.95116856 0 0 Z " fill="#839AC7" transform="translate(289,92)"/>
<path d="M0 0 C0.33 0 0.66 0 1 0 C1.13353288 7.92223509 1.26403587 15.84451294 1.39115143 23.76685333 C1.45032641 27.44957345 1.51036781 31.13227418 1.57275391 34.81494141 C1.92309038 55.54552848 2.06297747 76.26641894 2 97 C9.59 97 17.18 97 25 97 C25 77.53 25 58.06 25 38 C25.66 38.33 26.32 38.66 27 39 C26.89264388 46.67546411 26.78004051 54.35083582 26.66066074 62.02612209 C26.60539973 65.58972968 26.55197482 69.15334543 26.50268555 72.71704102 C26.44599468 76.81015245 26.38142682 80.9031061 26.31640625 84.99609375 C26.29133751 86.92418129 26.29133751 86.92418129 26.26576233 88.89122009 C26.24581711 90.07236893 26.22587189 91.25351776 26.20532227 92.47045898 C26.18977798 93.51636703 26.1742337 94.56227509 26.15821838 95.63987732 C26 98 26 98 25 99 C16.75 99 8.5 99 0 99 C0 66.33 0 33.66 0 0 Z " fill="#879CC3" transform="translate(633,95)"/>
<path d="M0 0 C1.35015859 4.05047576 0.62084998 6.7920168 0 11 C0.804375 11.37125 1.60875 11.7425 2.4375 12.125 C5 14 5 14 5.8125 17.1875 C5.874375 18.115625 5.93625 19.04375 6 20 C9.56460869 21.1882029 12.7396371 21.06924168 16.44140625 20.9921875 C17.92642555 20.97467887 19.41145202 20.95776986 20.89648438 20.94140625 C23.23612202 20.910372 25.57540344 20.87474555 27.91479492 20.82861328 C30.17371154 20.78639941 32.43220407 20.76287614 34.69140625 20.7421875 C35.39350723 20.72356659 36.09560822 20.70494568 36.81898499 20.6857605 C38.79125977 20.67529297 38.79125977 20.67529297 42 21 C44.23551759 24.35327639 44.17283528 24.90743657 43.625 28.6875 C43.51414063 29.49574219 43.40328125 30.30398437 43.2890625 31.13671875 C43.14597656 32.05904297 43.14597656 32.05904297 43 33 C42.34 33 41.68 33 41 33 C41.03255208 30.94921875 41.06510417 28.8984375 41.09765625 26.84765625 C41.20561184 24.98267859 41.20561184 24.98267859 40 24 C37.70631898 23.88992908 35.40951627 23.84404216 33.11328125 23.82421875 C31.6855324 23.80100408 30.257798 23.77688609 28.83007812 23.75195312 C26.57648288 23.71695105 24.323413 23.68756533 22.06958008 23.67407227 C19.89599378 23.65850731 17.72395426 23.61823012 15.55078125 23.57421875 C14.24794189 23.55963623 12.94510254 23.54505371 11.6027832 23.5300293 C6.61968304 22.79693243 3.4861655 20.69115385 0.1875 16.9375 C-2.32936085 12.83104282 -2.40526817 8.68414602 -2 4 C-1 1.5 -1 1.5 0 0 Z " fill="#8CA2CD" transform="translate(32,150)"/>
<path d="M0 0 C4.62 0 9.24 0 14 0 C14 0.33 14 0.66 14 1 C13.21753906 1.04898438 12.43507813 1.09796875 11.62890625 1.1484375 C10.61699219 1.22320312 9.60507812 1.29796875 8.5625 1.375 C7.55316406 1.44460937 6.54382813 1.51421875 5.50390625 1.5859375 C4.26447266 1.79089844 4.26447266 1.79089844 3 2 C1.75451467 4.49097066 1.87304097 6.16628008 1.87060547 8.95288086 C1.86745331 9.98412582 1.86430115 11.01537079 1.86105347 12.0778656 C1.8630777 13.19556839 1.86510193 14.31327118 1.8671875 15.46484375 C1.86623077 16.60909317 1.86527405 17.75334259 1.86428833 18.93226624 C1.86360684 21.355805 1.86545897 23.77934558 1.86962891 26.20288086 C1.87497267 29.91849869 1.86968536 33.63399535 1.86328125 37.34960938 C1.86394213 39.7005211 1.86522351 42.05143275 1.8671875 44.40234375 C1.86516327 45.51802231 1.86313904 46.63370087 1.86105347 47.78318787 C1.86420563 48.81758499 1.86735779 49.85198212 1.87060547 50.91772461 C1.87140106 51.82880478 1.87219666 52.73988495 1.87301636 53.67857361 C1.90625394 56.15866107 1.90625394 56.15866107 3 59 C1.515 59.495 1.515 59.495 0 60 C0 40.2 0 20.4 0 0 Z " fill="#8B9FC4" transform="translate(699,92)"/>
<path d="M0 0 C1.98 0 3.96 0 6 0 C5.01 0.33 4.02 0.66 3 1 C2.67 22.78 2.34 44.56 2 67 C1.67 67 1.34 67 1 67 C0.67 44.89 0.34 22.78 0 0 Z " fill="#869FCF" transform="translate(633,92)"/>
<path d="M0 0 C8.91 0 17.82 0 27 0 C26.67 0.66 26.34 1.32 26 2 C17.75 2 9.5 2 1 2 C1.61875 4.124375 2.2375 6.24875 2.875 8.4375 C3.22304687 9.63246094 3.57109375 10.82742187 3.9296875 12.05859375 C4.6608291 15.11691031 4.6608291 15.11691031 7 16 C7.625 18.5625 7.625 18.5625 8 21 C3.68286652 17.26626294 1.15500878 13.66236014 0 8 C0 5.36 0 2.72 0 0 Z " fill="#889EC7" transform="translate(189,162)"/>
<path d="M0 0 C0.66 0 1.32 0 2 0 C2 1.32 2 2.64 2 4 C-6.25 4 -14.5 4 -23 4 C-23.33 3.34 -23.66 2.68 -24 2 C-16.08 2 -8.16 2 0 2 C0 1.34 0 0.68 0 0 Z " fill="#809CCF" transform="translate(722,190)"/>
<path d="M0 0 C9.57 0 19.14 0 29 0 C29.33 1.32 29.66 2.64 30 4 C29.01 4.495 29.01 4.495 28 5 C27.67 4.01 27.34 3.02 27 2 C19.41 2 11.82 2 4 2 C3.67 3.65 3.34 5.3 3 7 C0 3.375 0 3.375 0 0 Z " fill="#8B9FCD" transform="translate(391,92)"/>
<path d="M0 0 C9.57 0 19.14 0 29 0 C27 6 27 6 25 8 C24.67 7.01 24.34 6.02 24 5 C24.99 3.68 25.98 2.36 27 1 C13.635 1.495 13.635 1.495 0 2 C0 1.34 0 0.68 0 0 Z " fill="#8AA0C8" transform="translate(457,92)"/>
<path d="M0 0 C0.33 0.66 0.66 1.32 1 2 C1.66 2 2.32 2 3 2 C3.20625 2.928125 3.4125 3.85625 3.625 4.8125 C4.74446192 8.26004095 4.74446192 8.26004095 8.125 9.875 C9.07375 10.24625 10.0225 10.6175 11 11 C10.01 11.99 9.02 12.98 8 14 C6 12 4 10 2 8 C1.34 8.99 0.68 9.98 0 11 C-1.26026798 8.47946405 -0.91874445 7.1457902 -0.5625 4.375 C-0.46066406 3.55773437 -0.35882813 2.74046875 -0.25390625 1.8984375 C-0.17011719 1.27195313 -0.08632813 0.64546875 0 0 Z " fill="#81A0D2" transform="translate(314,145)"/>
<path d="M0 0 C3.96 0 7.92 0 12 0 C10.38617965 4.03455089 9.59503354 5.79681064 6.875 8.8125 C6.33617187 9.41707031 5.79734375 10.02164063 5.2421875 10.64453125 C4.83226562 11.09183594 4.42234375 11.53914063 4 12 C3.67 11.34 3.34 10.68 3 10 C3.9375 7.875 3.9375 7.875 5 6 C5.66 6 6.32 6 7 6 C6.67 5.01 6.34 4.02 6 3 C2.99152582 1.77479736 2.99152582 1.77479736 0 1 C0 0.67 0 0.34 0 0 Z " fill="#869DCD" transform="translate(365,92)"/>
<path d="M0 0 C1.98 0.66 3.96 1.32 6 2 C6 2.66 6 3.32 6 4 C6.75925781 3.855625 7.51851563 3.71125 8.30078125 3.5625 C9.79158203 3.2840625 9.79158203 3.2840625 11.3125 3 C12.29863281 2.814375 13.28476563 2.62875 14.30078125 2.4375 C17 2 17 2 20 2 C17.02911661 5.06671834 14.76916301 6.34221866 10.5625 6.5625 C5.57859741 6.36247715 3.37750447 4.55070982 0 1 C0 0.67 0 0.34 0 0 Z " fill="#8CA3CA" transform="translate(69,211)"/>
<path d="M0 0 C2.70703125 0.828125 2.70703125 0.828125 5.8125 2.25 C9.82616858 4.06098354 13.75155354 5.81213195 18 7 C18.66 6.67 19.32 6.34 20 6 C20 6.66 20 7.32 20 8 C20.66 8.33 21.32 8.66 22 9 C18.36383407 10.21205531 17.41130247 9.66898648 13.89453125 8.34765625 C12.91162109 7.98349609 11.92871094 7.61933594 10.91601562 7.24414062 C9.89185547 6.85419922 8.86769531 6.46425781 7.8125 6.0625 C6.77673828 5.67642578 5.74097656 5.29035156 4.67382812 4.89257812 C2.11268546 3.93657556 -0.44493599 2.97210743 -3 2 C-2.01 1.34 -1.02 0.68 0 0 Z " fill="#859BC7" transform="translate(214,147)"/>
<path d="M0 0 C0.99 0.99 1.98 1.98 3 3 C2 4 2 4 -0.86743164 4.11352539 C-2.11903076 4.10828857 -3.37062988 4.10305176 -4.66015625 4.09765625 C-5.65685585 4.09553383 -5.65685585 4.09553383 -6.6736908 4.09336853 C-8.80333899 4.08775518 -10.93288339 4.07520054 -13.0625 4.0625 C-14.50325369 4.05748671 -15.94400903 4.05292351 -17.38476562 4.04882812 C-20.92321102 4.03778145 -24.46159539 4.02050792 -28 4 C-28.33 3.34 -28.66 2.68 -29 2 C-28.22809326 2.01047363 -27.45618652 2.02094727 -26.66088867 2.03173828 C-23.16979212 2.07326454 -19.67874751 2.09931557 -16.1875 2.125 C-14.97255859 2.14175781 -13.75761719 2.15851563 -12.50585938 2.17578125 C-10.76079102 2.18544922 -10.76079102 2.18544922 -8.98046875 2.1953125 C-7.90692139 2.20578613 -6.83337402 2.21625977 -5.72729492 2.22705078 C-2.78066259 2.20315543 -2.78066259 2.20315543 0 0 Z " fill="#7F99C8" transform="translate(376,190)"/>
<path d="M0 0 C0.33 0.66 0.66 1.32 1 2 C0.19555664 3.87939453 0.19555664 3.87939453 -1.08984375 6.1328125 C-1.54423828 6.93847656 -1.99863281 7.74414062 -2.46679688 8.57421875 C-2.95212891 9.41597656 -3.43746094 10.25773437 -3.9375 11.125 C-4.41896484 11.97449219 -4.90042969 12.82398437 -5.39648438 13.69921875 C-6.59057183 15.80365011 -7.79196837 17.90355191 -9 20 C-10.66355217 15.00934349 -8.16560643 10.61456323 -6 6 C-4.45690299 3.94253732 -3.01563545 2.63429901 -1 1 C-0.67 0.67 -0.34 0.34 0 0 Z " fill="#899EC8" transform="translate(131,99)"/>
<path d="M0 0 C0.33 0.66 0.66 1.32 1 2 C-1.2561445 7.46846453 -4.41814493 12.26217086 -9 16 C-9.99 16 -10.98 16 -12 16 C-8.04 10.72 -4.08 5.44 0 0 Z " fill="#869CC6" transform="translate(327,118)"/>
<path d="M0 0 C3.59634744 3.49359465 6.83451967 7.11098131 10 11 C9.67 11.66 9.34 12.32 9 13 C8.4225 12.54625 7.845 12.0925 7.25 11.625 C5.13148021 9.91493811 5.13148021 9.91493811 2.8125 9.3125 C1 8 1 8 0.52734375 6.09765625 C0.27473355 4.07321679 0.13134879 2.03590631 0 0 Z " fill="#879DCC" transform="translate(362,172)"/>
<path d="M0 0 C4.8403477 4.53782597 9.14689594 9.59800548 13 15 C13 15.66 13 16.32 13 17 C12.01 17 11.02 17 10 17 C9.01 15.02 8.02 13.04 7 11 C6.01 11 5.02 11 4 11 C0.71428571 3.57142857 0.71428571 3.57142857 0 0 Z " fill="#859DCA" transform="translate(344,149)"/>
<path d="M0 0 C1 3 1 3 0.28735352 4.99291992 C-0.09493408 5.73131104 -0.47722168 6.46970215 -0.87109375 7.23046875 C-1.28037109 8.03291016 -1.68964844 8.83535156 -2.11132812 9.66210938 C-2.54896484 10.49548828 -2.98660156 11.32886719 -3.4375 12.1875 C-4.0881543 13.4549707 -4.0881543 13.4549707 -4.75195312 14.74804688 C-5.82582553 16.83678771 -6.90873822 18.92030626 -8 21 C-9.04449911 17.86650268 -8.93423645 17.01031744 -8 14 C-7.34 14 -6.68 14 -6 14 C-6.061875 13.2575 -6.12375 12.515 -6.1875 11.75 C-5.96229228 8.44695339 -5.10332577 7.49283054 -3 5 C-1.98343919 3.34338239 -0.97934924 1.67888441 0 0 Z " fill="#859DC9" transform="translate(464,131)"/>
<path d="M0 0 C0 3.46877176 -0.61849799 5.82254537 -2 9 C-3.32303717 9.3721042 -4.65737935 9.70630173 -6 10 C-6.495 11.2375 -6.495 11.2375 -7 12.5 C-7.495 13.7375 -7.495 13.7375 -8 15 C-10.0625 15.65625 -10.0625 15.65625 -12 16 C-8 10.66666667 -4 5.33333333 0 0 Z " fill="#8A9FCA" transform="translate(341,100)"/>
<path d="M0 0 C-1.56367357 3.52238047 -3.69495889 6.27123994 -6.125 9.25 C-6.84945313 10.14203125 -7.57390625 11.0340625 -8.3203125 11.953125 C-8.87460937 12.62859375 -9.42890625 13.3040625 -10 14 C-10.33 13.34 -10.66 12.68 -11 12 C-9.33281098 7.68492254 -5.29444819 0 0 0 Z " fill="#869CCA" transform="translate(356,119)"/>
<path d="M0 0 C1.26457031 0.04640625 2.52914063 0.0928125 3.83203125 0.140625 C5.74048828 0.19476563 5.74048828 0.19476563 7.6875 0.25 C8.66332031 0.29640625 9.63914062 0.3428125 10.64453125 0.390625 C10.64453125 0.720625 10.64453125 1.050625 10.64453125 1.390625 C9.43216797 1.37708984 9.43216797 1.37708984 8.1953125 1.36328125 C2.01880987 1.32432994 2.01880987 1.32432994 -3.265625 4.015625 C-4.79300914 6.13201493 -4.79300914 6.13201493 -6.35546875 9.390625 C-7.01546875 9.060625 -7.67546875 8.730625 -8.35546875 8.390625 C-4.71464597 0.54885285 -4.71464597 0.54885285 0 0 Z " fill="#879EC8" transform="translate(350.35546875,91.609375)"/>
<path d="M0 0 C1.77395508 0.42466497 3.54410631 0.8652409 5.3125 1.3125 C6.29863281 1.55613281 7.28476563 1.79976562 8.30078125 2.05078125 C11.00141012 3.00049589 12.20956216 3.81847677 14 6 C11.23723823 5.47731534 8.6739124 4.89130413 6 4 C6 4.66 6 5.32 6 6 C5.34 6 4.68 6 4 6 C3.67 5.01 3.34 4.02 3 3 C2.01 2.67 1.02 2.34 0 2 C0 1.34 0 0.68 0 0 Z " fill="#879DCE" transform="translate(224,129)"/>
<path d="M0 0 C3 3.75 3 3.75 3 6 C5.31 6.66 7.62 7.32 10 8 C9.01 8.99 8.02 9.98 7 11 C6.01 10.34 5.02 9.68 4 9 C3.278125 8.5875 2.55625 8.175 1.8125 7.75 C0 6 0 6 -0.25 2.8125 C-0.1675 1.884375 -0.085 0.95625 0 0 Z " fill="#839CC8" transform="translate(216,165)"/>
<path d="M0 0 C3.21880117 3.7935871 5.6163187 7.65829477 8 12 C7.01 12.66 6.02 13.32 5 14 C4.34 13.34 3.68 12.68 3 12 C3.33 11.67 3.66 11.34 4 11 C3.525625 9.9275 3.05125 8.855 2.5625 7.75 C1.46233668 5.19160135 0.54832997 2.74164983 0 0 Z " fill="#879DCA" transform="translate(688,137)"/>
<path d="M0 0 C1.859375 0.6171875 1.859375 0.6171875 4 2 C5.265625 4.8203125 5.265625 4.8203125 6.25 8.125 C6.58515625 9.22070312 6.9203125 10.31640625 7.265625 11.4453125 C7.62914062 12.70988281 7.62914062 12.70988281 8 14 C7.34 14 6.68 14 6 14 C4.99515796 12.04414675 3.99626195 10.08523763 3 8.125 C2.1646875 6.48917969 2.1646875 6.48917969 1.3125 4.8203125 C0 2 0 2 0 0 Z " fill="#879CC9" transform="translate(418,145)"/>
<path d="M0 0 C3.25548753 3.02295271 5.68977058 6.20462309 8 10 C8 10.66 8 11.32 8 12 C5 11 5 11 3.4375 8 C2.963125 7.01 2.48875 6.02 2 5 C1.34 4.67 0.68 4.34 0 4 C0 2.68 0 1.36 0 0 Z " fill="#889FCB" transform="translate(677,121)"/>
<path d="M0 0 C0 0.66 0 1.32 0 2 C-0.99 2.33 -1.98 2.66 -3 3 C-3.6496875 3.6496875 -3.6496875 3.6496875 -4.3125 4.3125 C-6.61739519 6.61739519 -9.26789099 8.23930753 -12 10 C-10.58426179 6.60812721 -8.95769034 4.90302459 -6 2.75 C-5.29875 2.22921875 -4.5975 1.7084375 -3.875 1.171875 C-2 0 -2 0 0 0 Z " fill="#869EC8" transform="translate(206,95)"/>
<path d="M0 0 C1.485 0.99 1.485 0.99 3 2 C3 2.66 3 3.32 3 4 C5.475 4.99 5.475 4.99 8 6 C7.67 7.65 7.34 9.3 7 11 C5.66104368 9.33784732 4.32869858 7.67036393 3 6 C2.4225 5.278125 1.845 4.55625 1.25 3.8125 C0 2 0 2 0 0 Z " fill="#849CC7" transform="translate(685,172)"/>
<path d="M0 0 C1.32 0.99 2.64 1.98 4 3 C1.53846154 8.66153846 1.53846154 8.66153846 -1.1875 10.375 C-1.785625 10.58125 -2.38375 10.7875 -3 11 C-2.505 10.484375 -2.01 9.96875 -1.5 9.4375 C0.49649241 6.19319983 0.21564385 3.73782666 0 0 Z " fill="#8DA9E0" transform="translate(68,99)"/>
<path d="M0 0 C3.0831351 1.19899698 6.06279492 2.47700477 9 4 C8.01 4.99 7.02 5.98 6 7 C1.125 2.25 1.125 2.25 0 0 Z " fill="#889DC8" transform="translate(316,152)"/>
<path d="M0 0 C0.66 0 1.32 0 2 0 C2.268125 0.9075 2.53625 1.815 2.8125 2.75 C3.89576294 5.71471963 4.98359457 7.6169754 7 10 C6.67 10.66 6.34 11.32 6 12 C2.28930302 8.00386479 0.40208382 5.62917348 0 0 Z " fill="#899CC5" transform="translate(190,128)"/>
<path d="M0 0 C0.66 0.66 1.32 1.32 2 2 C-0.31 4.31 -2.62 6.62 -5 9 C-5.33 7.68 -5.66 6.36 -6 5 C-5.195625 4.54625 -4.39125 4.0925 -3.5625 3.625 C-0.91143428 2.25274335 -0.91143428 2.25274335 0 0 Z " fill="#87A1C8" transform="translate(109,188)"/>
<path d="M0 0 C1.32 0 2.64 0 4 0 C5.75 2.5 5.75 2.5 7 5 C3.31245243 4.50168276 1.39509338 3.89932357 -1 1 C-0.67 0.67 -0.34 0.34 0 0 Z " fill="#839DCE" transform="translate(203,186)"/>
<path d="M0 0 C0.66 0.33 1.32 0.66 2 1 C-0.57404971 4.86107457 -2.61020259 4.94319692 -7 6 C-6 3 -6 3 -3.0625 1.25 C-2.051875 0.8375 -1.04125 0.425 0 0 Z " fill="#879DCA" transform="translate(237,170)"/>
<path d="M0 0 C3 2 3 2 3.6875 5.125 C3.790625 6.07375 3.89375 7.0225 4 8 C2.35 6.35 0.7 4.7 -1 3 C-0.67 2.01 -0.34 1.02 0 0 Z " fill="#829ECF" transform="translate(340,180)"/>
<path d="M0 0 C3.3 0 6.6 0 10 0 C10.33 0.99 10.66 1.98 11 3 C9.1128125 2.7525 9.1128125 2.7525 7.1875 2.5 C4.73543415 2.17841759 2.48349306 2 0 2 C0 1.34 0 0.68 0 0 Z " fill="#8DA3D1" transform="translate(649,92)"/>
</svg>
